<svg width="63" height="31" viewBox="0 0 63 31" fill="none" xmlns="http://www.w3.org/2000/svg">
<path d="M8.99482 29.2576C8.06973 29.2576 7.1529 29.1419 6.24434 28.9106C5.34403 28.6794 4.51393 28.3283 3.75404 27.8575C3.0024 27.3867 2.38292 26.7962 1.8956 26.0858C1.40828 25.3672 1.12745 24.5247 1.05311 23.5584H5.95938C6.05023 23.9796 6.23195 24.3389 6.50452 24.6363C6.77709 24.9336 7.14464 25.1649 7.60719 25.3301C8.07799 25.487 8.63965 25.5655 9.29217 25.5655C9.68037 25.5655 10.0727 25.52 10.4692 25.4292C10.8656 25.3301 11.196 25.169 11.4603 24.946C11.7329 24.7147 11.8692 24.4009 11.8692 24.0044C11.8692 23.484 11.6544 23.1289 11.2249 22.9389C10.7954 22.7406 10.2875 22.5878 9.70102 22.4805L6.6408 21.9353C5.5753 21.7454 4.6626 21.4274 3.90271 20.9813C3.14282 20.527 2.56051 19.9365 2.15578 19.2096C1.75932 18.4828 1.56108 17.6114 1.56108 16.5954C1.56108 15.3895 1.8956 14.3612 2.56464 13.5104C3.23367 12.6514 4.14224 11.9989 5.29034 11.5529C6.43844 11.0986 7.72695 10.8715 9.15588 10.8715C10.717 10.8715 12.0426 11.111 13.1329 11.59C14.2315 12.0691 15.074 12.734 15.6604 13.5848C16.2468 14.4355 16.5524 15.4143 16.5772 16.5211H11.7949C11.7453 16.0668 11.6049 15.6993 11.3736 15.4184C11.1423 15.1376 10.8285 14.9311 10.432 14.7989C10.0438 14.6585 9.573 14.5883 9.0196 14.5883C8.12755 14.5883 7.50394 14.7453 7.14877 15.0591C6.79361 15.373 6.61602 15.7116 6.61602 16.0751C6.61602 16.4468 6.76057 16.7648 7.04966 17.0291C7.34701 17.2851 7.8715 17.4751 8.62313 17.599L11.2869 18.0326C12.5341 18.2309 13.5542 18.5778 14.3471 19.0733C15.1483 19.5689 15.7389 20.1884 16.1188 20.9318C16.4988 21.6751 16.6887 22.5259 16.6887 23.484C16.6887 24.6486 16.3501 25.6646 15.6728 26.5319C15.0038 27.3909 14.0911 28.0599 12.9347 28.539C11.7783 29.018 10.465 29.2576 8.99482 29.2576ZM23.9221 29.2576C22.1463 29.2576 20.6058 28.8817 19.3008 28.1301C18.004 27.3702 17.0005 26.3047 16.2901 24.9336C15.5798 23.5625 15.2246 21.9477 15.2246 20.0893C15.2246 18.2226 15.5839 16.5996 16.3025 15.2202C17.0294 13.8326 18.0453 12.7588 19.3504 11.9989C20.6554 11.2308 22.1793 10.8467 23.9221 10.8467C25.6566 10.8467 27.1723 11.2308 28.4691 11.9989C29.7658 12.7588 30.7735 13.8326 31.4921 15.2202C32.2107 16.5996 32.57 18.2226 32.57 20.0893C32.57 21.9395 32.2148 23.5542 31.5045 24.9336C30.8024 26.3047 29.803 27.3702 28.5062 28.1301C27.2095 28.8817 25.6814 29.2576 23.9221 29.2576ZM23.9221 25.392C24.5829 25.392 25.1693 25.2268 25.6814 24.8964C26.2018 24.5578 26.6065 24.0085 26.8956 23.2486C27.1929 22.4805 27.3416 21.4521 27.3416 20.1636C27.3416 18.8338 27.1929 17.7724 26.8956 16.9795C26.6065 16.1783 26.2018 15.6001 25.6814 15.245C25.1693 14.8898 24.5829 14.7122 23.9221 14.7122C23.2613 14.7122 22.6708 14.8898 22.1504 15.245C21.6383 15.6001 21.2336 16.1783 20.9362 16.9795C20.6389 17.7724 20.4902 18.8338 20.4902 20.1636C20.4902 21.4521 20.6389 22.4805 20.9362 23.2486C21.2336 24.0085 21.6383 24.5578 22.1504 24.8964C22.6708 25.2268 23.2613 25.392 23.9221 25.392ZM31.8305 29.0098V11.0945C31.9627 11.0945 32.2931 11.0945 32.8217 11.0945C33.3503 11.0945 33.9615 11.0945 34.6553 11.0945C35.3574 11.0862 36.0388 11.0862 36.6996 11.0945C37.3604 11.0945 37.8849 11.1027 38.2731 11.1192C40.4289 11.1936 42.1882 11.6148 43.551 12.383C44.9221 13.1511 45.9298 14.1877 46.5741 15.4928C47.2183 16.7978 47.5405 18.2969 47.5405 19.9902C47.5405 21.733 47.206 23.2858 46.5369 24.6486C45.8679 26.0032 44.8478 27.0687 43.4767 27.8451C42.1056 28.6216 40.3628 29.0098 38.2483 29.0098H31.8305ZM36.6501 25.2186H38.397C39.0082 25.2186 39.6277 25.0492 40.2554 24.7106C40.8914 24.3637 41.4242 23.802 41.8537 23.0256C42.2914 22.2492 42.5103 21.2126 42.5103 19.9158C42.5103 18.8173 42.3369 17.8963 41.99 17.153C41.6513 16.4013 41.1722 15.8355 40.5528 15.4556C39.9333 15.0756 39.2147 14.8857 38.397 14.8857H36.6501V25.2186ZM44.6285 29.0098L50.972 11.0945H55.903L62.2465 29.0098H57.4889L56.2995 25.5407H50.6499L49.4357 29.0098H44.6285ZM51.6658 21.4274H55.2092L53.4499 15.7034L51.6658 21.4274Z" fill="#3BD75C"/>
<circle cx="21.81" cy="10.5072" r="3.55215" fill="#3BD75C"/>
<circle cx="27.8458" cy="5.2413" r="3.47763" fill="#3BD75C"/>
<circle cx="21.2879" cy="2.43434" r="2.43434" fill="#3BD75C"/>
</svg>
