<svg width="420" height="207" viewBox="0 0 420 207" fill="none" xmlns="http://www.w3.org/2000/svg">
<path d="M60.2058 198.663C54.0138 198.663 47.8772 197.889 41.7958 196.341C35.7697 194.793 30.2135 192.444 25.1272 189.293C20.0962 186.141 15.9498 182.188 12.688 177.434C9.42616 172.624 7.54646 166.985 7.04889 160.517H39.8884C40.4966 163.336 41.7128 165.741 43.5373 167.731C45.3617 169.722 47.8219 171.27 50.9179 172.375C54.0691 173.426 57.8285 173.951 62.1961 173.951C64.7945 173.951 67.4205 173.647 70.0742 173.039C72.7279 172.375 74.9394 171.297 76.7085 169.804C78.5329 168.256 79.4451 166.156 79.4451 163.502C79.4451 160.019 78.0077 157.642 75.1329 156.37C72.258 155.043 68.858 154.02 64.9327 153.302L44.4495 149.653C37.3176 148.381 31.2086 146.253 26.1224 143.267C21.0361 140.227 17.1385 136.274 14.4295 131.409C11.7758 126.544 10.4489 120.711 10.4489 113.911C10.4489 105.839 12.688 98.9562 17.1661 93.2618C21.6442 87.5122 27.7256 83.1446 35.4103 80.1592C43.095 77.1185 51.7195 75.5981 61.2839 75.5981C71.7328 75.5981 80.6061 77.2014 87.9038 80.408C95.2567 83.6145 100.896 88.065 104.821 93.7594C108.746 99.4538 110.792 106.005 110.958 113.413H78.9475C78.6158 110.373 77.676 107.912 76.128 106.033C74.58 104.153 72.4792 102.771 69.8255 101.886C67.227 100.947 64.0758 100.477 60.3717 100.477C54.4008 100.477 50.2268 101.527 47.8495 103.628C45.4722 105.729 44.2836 107.995 44.2836 110.428C44.2836 112.916 45.2511 115.044 47.1861 116.813C49.1764 118.527 52.687 119.799 57.718 120.628L75.5475 123.531C83.8956 124.857 90.7233 127.179 96.0307 130.497C101.393 133.814 105.346 137.96 107.889 142.936C110.433 147.911 111.704 153.606 111.704 160.019C111.704 167.814 109.437 174.614 104.904 180.419C100.426 186.169 94.3169 190.647 86.5769 193.854C78.837 197.06 70.0466 198.663 60.2058 198.663ZM160.12 198.663C148.234 198.663 137.923 196.148 129.188 191.117C120.508 186.031 113.791 178.899 109.036 169.722C104.282 160.544 101.904 149.736 101.904 137.297C101.904 124.802 104.309 113.939 109.119 104.706C113.984 95.418 120.784 88.2309 129.519 83.1446C138.255 78.0031 148.455 75.4323 160.12 75.4323C171.73 75.4323 181.875 78.0031 190.555 83.1446C199.234 88.2309 205.979 95.418 210.789 104.706C215.599 113.939 218.004 124.802 218.004 137.297C218.004 149.681 215.626 160.489 210.872 169.722C206.173 178.899 199.483 186.031 190.803 191.117C182.123 196.148 171.896 198.663 160.12 198.663ZM160.12 172.79C164.543 172.79 168.468 171.684 171.896 169.473C175.379 167.206 178.088 163.53 180.023 158.443C182.013 153.302 183.008 146.419 183.008 137.794C183.008 128.893 182.013 121.789 180.023 116.482C178.088 111.119 175.379 107.249 171.896 104.872C168.468 102.494 164.543 101.306 160.12 101.306C155.697 101.306 151.744 102.494 148.261 104.872C144.833 107.249 142.124 111.119 140.134 116.482C138.144 121.789 137.149 128.893 137.149 137.794C137.149 146.419 138.144 153.302 140.134 158.443C142.124 163.53 144.833 167.206 148.261 169.473C151.744 171.684 155.697 172.79 160.12 172.79ZM213.054 197.005V77.0909C213.939 77.0909 216.15 77.0909 219.688 77.0909C223.226 77.0909 227.318 77.0909 231.962 77.0909C236.661 77.0356 241.222 77.0356 245.645 77.0909C250.068 77.0909 253.578 77.1461 256.177 77.2567C270.606 77.7543 282.382 80.5738 291.504 85.7154C300.681 90.8569 307.426 97.7952 311.738 106.53C316.051 115.265 318.207 125.3 318.207 136.633C318.207 148.298 315.968 158.692 311.49 167.814C307.011 176.881 300.184 184.013 291.006 189.21C281.829 194.406 270.164 197.005 256.011 197.005H213.054ZM245.313 171.629H257.006C261.097 171.629 265.243 170.496 269.445 168.229C273.702 165.907 277.268 162.147 280.143 156.951C283.073 151.754 284.538 144.815 284.538 136.136C284.538 128.783 283.377 122.618 281.055 117.643C278.788 112.612 275.582 108.825 271.435 106.282C267.289 103.738 262.479 102.467 257.006 102.467H245.313V171.629ZM298.716 197.005L341.175 77.0909H374.181L416.64 197.005H384.795L376.834 173.785H339.019L330.892 197.005H298.716ZM345.819 146.253H369.537L357.761 107.94L345.819 146.253Z" fill="#3BD75C"/>
<circle cx="145.981" cy="70.3301" r="23.7759" fill="#3BD75C"/>
<circle cx="186.383" cy="35.082" r="23.2771" fill="#3BD75C"/>
<circle cx="142.489" cy="16.294" r="16.294" fill="#3BD75C"/>
</svg>
